<?xml version="1.0" encoding="utf-8"?>
<!-- Generator: Adobe Illustrator 21.0.0, SVG Export Plug-In . SVG Version: 6.00 Build 0)  -->
<svg version="1.1" id="图层_1" xmlns="http://www.w3.org/2000/svg" xmlns:xlink="http://www.w3.org/1999/xlink" x="0px" y="0px"
	 viewBox="0 0 128 128" style="enable-background:new 0 0 128 128;" xml:space="preserve">
<style type="text/css">
	.st0{fill:#FF9D5A;}
</style>
<g>
	<path class="st0" d="M115.9,33.4l-32.6-32C82.4,0.5,81.2,0,79.9,0H15.5c-1.3,0-2.5,0.5-3.4,1.4s-1.4,2.1-1.4,3.4v118.5
		c0,1.3,0.5,2.5,1.4,3.4c0.9,0.9,2.1,1.4,3.4,1.4h97c1.3,0,2.5-0.5,3.4-1.4c0.9-0.9,1.4-2.1,1.4-3.4V36.8
		C117.3,35.5,116.8,34.3,115.9,33.4L115.9,33.4z M106.1,39H77.6V11L106.1,39z M106.4,117.3H21.6V10.7h45.8v32.1
		c0,3.5,2.8,6.3,6.4,6.3h32.7V117.3z M106.4,117.3"/>
	<path class="st0" d="M56,42.7c0.5,0,1,0.5,1,1.2V51c0,0.7-0.4,1.2-1,1.2H33c-0.5,0-1-0.5-1-1.2v-7.1c0-0.7,0.4-1.2,1-1.2H56z
		 M32,65.2c0-0.7,0.6-1.2,1.3-1.2h63.3c0.7,0,1.3,0.5,1.3,1.2v7.1c0,0.7-0.6,1.2-1.3,1.2H33.3c-0.7,0-1.3-0.5-1.3-1.2V65.2z
		 M32,86.5c0-0.7,0.6-1.2,1.3-1.2h63.3c0.7,0,1.3,0.5,1.3,1.2v7.1c0,0.7-0.6,1.2-1.3,1.2H33.3c-0.7,0-1.3-0.5-1.3-1.2V86.5z
		 M32,86.5"/>
</g>
</svg>
