<?xml version="1.0" standalone="no"?><!DOCTYPE svg PUBLIC "-//W3C//DTD SVG 1.1//EN" "http://www.w3.org/Graphics/SVG/1.1/DTD/svg11.dtd"><svg t="1634280283207" class="icon" viewBox="0 0 1024 1024" version="1.1" xmlns="http://www.w3.org/2000/svg" p-id="3137" xmlns:xlink="http://www.w3.org/1999/xlink" width="200" height="200"><defs><style type="text/css"></style></defs><path d="M273 947.33c-75.69 0-137.27-61.58-137.27-137.27S197.31 672.8 273 672.8c75.69 0 137.27 61.58 137.27 137.27S348.69 947.33 273 947.33z m0-238.72c-55.94 0-101.46 45.51-101.46 101.46S217.05 911.52 273 911.52c55.94 0 101.46-45.51 101.46-101.46S328.94 708.61 273 708.61z m477.45-358.09c-75.69 0-137.27-61.58-137.27-137.27S674.76 75.98 750.45 75.98s137.27 61.58 137.27 137.27-61.58 137.27-137.27 137.27z m0-238.73c-55.94 0-101.46 45.51-101.46 101.46s45.51 101.46 101.46 101.46 101.46-45.51 101.46-101.46-45.52-101.46-101.46-101.46z" p-id="3138"></path><path d="M672.83 830.95H384.35v-41.78h288.48c66.64 0 120.85-57.56 120.85-128.32 0-70.75-54.21-128.31-120.85-128.31H384.35v-41.78h288.48c89.68 0 162.63 76.3 162.63 170.09 0 93.8-72.95 170.1-162.63 170.1z" p-id="3139"></path><path d="M621.22 532.55H357.25c-89.68 0-162.63-76.3-162.63-170.09s72.96-170.09 162.63-170.09h273.83v41.78H357.25c-66.64 0-120.85 57.56-120.85 128.31s54.22 128.32 120.85 128.32h263.97v41.77z" p-id="3140"></path></svg>