<?xml version="1.0" encoding="utf-8"?>
<!-- Generator: Adobe Illustrator 21.0.0, SVG Export Plug-In . SVG Version: 6.00 Build 0)  -->
<svg version="1.1" id="图层_1" xmlns="http://www.w3.org/2000/svg" xmlns:xlink="http://www.w3.org/1999/xlink" x="0px" y="0px"
	 viewBox="0 0 128 128" style="enable-background:new 0 0 128 128;" xml:space="preserve">
<style type="text/css">
	.st0{fill:#B14DFF;}
</style>
<g>
	<g>
		<path class="st0" d="M52,59.1H8.1c-4.2,0-7.6-3.4-7.6-7.6V7.6C0.5,3.4,3.9,0,8.1,0H52c4.2,0,7.6,3.4,7.6,7.6v43.8
			c0,2-0.8,4-2.2,5.4C56,58.3,54,59.1,52,59.1L52,59.1z M13.1,10.2c-1.3,0-2.4,1.1-2.4,2.4v34c0,1.3,1.1,2.4,2.4,2.4h34
			c1.3,0,2.4-1.1,2.4-2.4v-34c0-1.3-1.1-2.4-2.4-2.4H13.1z M52,128H8.1c-2,0-4-0.8-5.4-2.2c-1.4-1.4-2.2-3.4-2.2-5.4V76.5
			c0-4.2,3.4-7.6,7.6-7.6H52c4.2,0,7.6,3.4,7.6,7.6v43.8c0,2-0.8,4-2.2,5.4C56,127.2,54,128,52,128L52,128z M47,79.1h-34
			c-1.3,0-2.4,1.1-2.4,2.4v34c0,1.3,1.1,2.4,2.4,2.4h34c1.3,0,2.4-1.1,2.4-2.4v-34C49.4,80.1,48.4,79.1,47,79.1L47,79.1z
			 M119.9,74.9H75.8c-2,0-4-0.8-5.4-2.2c-1.4-1.4-2.2-3.4-2.2-5.4V7.6c0-4.2,3.4-7.6,7.6-7.6h44.1c4.2,0,7.6,3.4,7.6,7.6v59.6
			c0,2-0.8,4-2.2,5.4C123.8,74.1,121.9,74.9,119.9,74.9L119.9,74.9z M80.7,10.2c-1.3,0-2.4,1.1-2.4,2.4v49.7c0,1.3,1.1,2.4,2.4,2.4
			H115c1.3,0,2.4-1.1,2.4-2.4V12.6c0-1.3-1.1-2.4-2.4-2.4H80.7z M119.9,128H75.8c-4.2,0-7.6-3.4-7.6-7.6V91.6c0-4.2,3.4-7.6,7.6-7.6
			h44.1c4.2,0,7.6,3.4,7.6,7.6v28.8c0,2-0.8,4-2.2,5.4C123.8,127.2,121.9,128,119.9,128L119.9,128z M80.7,94.1
			c-1.3,0-2.4,1.1-2.4,2.4v18.9c0,1.3,1.1,2.4,2.4,2.4H115c1.3,0,2.4-1.1,2.4-2.4V96.5c0-1.3-1.1-2.4-2.4-2.4L80.7,94.1L80.7,94.1z
			 M80.7,94.1"/>
	</g>
</g>
</svg>
