<?xml version="1.0" encoding="utf-8"?>
<!-- Generator: Adobe Illustrator 21.0.0, SVG Export Plug-In . SVG Version: 6.00 Build 0)  -->
<svg version="1.1" id="图层_1" xmlns="http://www.w3.org/2000/svg" xmlns:xlink="http://www.w3.org/1999/xlink" x="0px" y="0px"
	 viewBox="0 0 128 128" style="enable-background:new 0 0 128 128;" xml:space="preserve">
<style type="text/css">
	.st0{fill:#1569FF;}
</style>
<g>
	<g>
		<path class="st0" d="M125.9,91.4H74.4c-1.2,0-2.1-0.9-2.1-2.1v-4.9c0-1.2,1-2.1,2.1-2.1h51.5c1.2,0,2.1,0.9,2.1,2.1v4.9
			C128,90.5,127,91.4,125.9,91.4L125.9,91.4z M125.9,109.7H74.4c-1.2,0-2.1-0.9-2.1-2.1v-4.9c0-1.2,1-2.1,2.1-2.1h51.5
			c1.2,0,2.1,0.9,2.1,2.1v4.9C128,108.8,127,109.7,125.9,109.7L125.9,109.7z M125.9,128H74.4c-1.2,0-2.1-0.9-2.1-2.1V121
			c0-1.2,1-2.1,2.1-2.1h51.5c1.2,0,2.1,0.9,2.1,2.1v4.9C128,127.1,127,128,125.9,128L125.9,128L125.9,128z M63,81.5v9.3
			c-15,0-27.2-12-27.2-26.8C35.8,49.2,48,37.2,63,37.2c15,0,27.2,12,27.2,26.8c0,3.1-0.6,6.2-1.6,9.1H78.1c1.7-2.7,2.7-5.9,2.7-9.1
			c0-9.6-8-17.5-17.8-17.5c-9.8,0-17.8,7.8-17.8,17.5C45.2,73.6,53.2,81.5,63,81.5L63,81.5z M60.7,118.7c0.6,0,1.2,0.2,1.6,0.6
			c0.4,0.4,0.7,1,0.7,1.6v4.9c0,1.2-1,2.2-2.2,2.2h-8.9c-4.2,0-7.7-3.2-8-7.5l-1.3-9.4c-3.9-1.6-7.6-3.7-10.9-6.2l-8.9,3.6
			c-3.8,1.9-8.4,0.6-10.6-3.1L1.1,86.5c-2.1-3.6-1-8.3,2.6-10.5l7.6-5.8c-0.6-4.1-0.6-8.3,0-12.4L3.7,52C0.1,49.8-1,45.1,1.1,41.5
			l11.1-19c2.2-3.6,6.8-5,10.5-3.1l8.9,3.6c3.4-2.5,7.1-4.6,10.9-6.2l1.3-9.4c0.2-4.2,3.7-7.5,8-7.5h22.2c4.3,0,7.8,3.3,8,7.4
			l1.3,9.4c3.9,1.6,7.6,3.7,11,6.2l8.9-3.6c3.8-1.9,8.4-0.6,10.5,3l11.1,19c2.1,3.6,1,8.3-2.6,10.5l-7.6,5.8c0.5,4.1,0.5,8.3,0,12.4
			l3.8,2.9h-13.9l0.3-1.7c0.9-4.9,0.9-9.9,0-14.8l-0.5-2.8L116,45l-9.9-16.9l-13.4,5.7l-2.2-1.8c-3.9-3.2-8.3-5.7-13-7.4l-2.7-1
			l-2-14.3H53.2l-2,14.3l-2.7,1c-4.7,1.7-9.2,4.2-13,7.4l-2.2,1.8l-13.5-5.4L9.9,45l11.6,8.8L21,56.6c-0.5,2.4-0.7,4.9-0.7,7.4
			c0,2.5,0.2,5,0.7,7.4l0.5,2.8L9.9,83l9.9,16.9l13.4-5.7l2.2,1.8c3.9,3.2,8.3,5.7,13,7.4l2.7,1l2,14.3H60.7L60.7,118.7z
			 M60.7,118.7"/>
	</g>
</g>
</svg>
