<?xml version="1.0" encoding="utf-8"?>
<!-- Generator: Adobe Illustrator 21.0.0, SVG Export Plug-In . SVG Version: 6.00 Build 0)  -->
<svg version="1.1" id="图层_1" xmlns="http://www.w3.org/2000/svg" xmlns:xlink="http://www.w3.org/1999/xlink" x="0px" y="0px"
	 viewBox="0 0 128 128" style="enable-background:new 0 0 128 128;" xml:space="preserve">
<style type="text/css">
	.st0{fill:#FF3333;}
</style>
<g>
	<path class="st0" d="M64,70.8L64,70.8c4.5,0,8.8-1.7,12-4.7c3.3-3.1,5.1-7.1,5.1-11.4c0-8.9-7.7-16.1-17.1-16.1
		c-9.4,0-17.1,7.2-17.1,16.1c0,4.3,1.8,8.3,5,11.4C55.2,69.1,59.5,70.8,64,70.8z M57.6,54.7c0-1.5,0.6-3,1.8-4.1
		c1.2-1.1,2.8-1.8,4.5-1.8c1.7,0,3.3,0.6,4.5,1.7c1.2,1.1,1.8,2.6,1.8,4.1c0,1.5-0.6,2.9-1.7,3.9c-1.2,1.2-2.9,1.9-4.7,1.9
		C60.5,60.5,57.7,57.9,57.6,54.7z"/>
	<path class="st0" d="M30.9,73.7L30.9,73.7c9.8,7.4,20.9,11.1,34.2,11.2c0.3,0,0.7,0,1.1-0.1l0.3,0c1.4-0.1,3.1-0.2,4.8-0.4
		c8.6-1.1,16.9-4.4,24-9.3c6.7-4.7,12.4-10.9,16.3-18.1c1-1.8,1-3.6,0-5.4c-3.9-7.2-9.6-13.5-16.4-18.2c-8.8-6.1-18.7-9.4-29.5-9.8
		c-5.4-0.2-10.8,0.4-16.1,1.9c-14.8,4.3-26,13.1-33.3,26.3c-0.9,1.6-0.9,3.3,0,5C19.9,63.3,24.9,69.2,30.9,73.7z M27.1,54.2
		c3.6-5.8,8.6-10.7,14.5-14.2c4.8-2.9,10-4.8,15.5-5.6c9.7-1.5,19,0.1,27.7,4.8c6.6,3.6,12,8.7,16,15.1c-4.2,6.7-9.9,12-17.1,15.7
		C78.8,72.5,73.5,74,68,74.5c-0.9,0.1-1.9,0.1-2.6,0.2l-0.7,0c-7.9-0.1-14.9-1.8-21.4-5.3C36.6,65.8,31.2,60.7,27.1,54.2z"/>
	<path class="st0" d="M128,21.3l0-0.3c-0.1-0.3-0.1-0.6-0.2-0.8c-0.1-0.6-0.3-1.3-0.5-2.1c-2-5.4-7-8.7-13.1-8.7
		c-3.4,0-6.9,0-10.3,0L14,9.4c-4.8,0-8.6,1.8-11.4,5.4c-1.3,1.7-2.2,3.7-2.5,5.8c0,0.1,0,0.2-0.1,0.3L0,21.2l0,66.9l0,0.3
		c0.1,0.2,0.1,0.5,0.2,0.8c0.1,0.7,0.3,1.4,0.5,2.1c2,5.4,7.1,8.7,13.2,8.7h44.6v8.4c-9.8,0-19.6,0-29.4,0c-2.2,0-3.9,0.8-4.9,2.4
		c-0.9,1.5-1.1,3.2-0.4,4.7c0.7,1.6,2.3,2.8,4.2,3c0.4,0.1,0.7,0.1,1.2,0.1c23.2,0,46.3,0,69.5,0c2.2,0,3.9-0.8,5-2.4
		c0.9-1.4,1.1-3.2,0.4-4.7c-0.7-1.6-2.3-2.7-4.1-3c-0.4-0.1-0.8-0.1-1.3-0.1H69.4V100l12.1,0c10.8,0,21.7,0,32.5,0
		c5.3,0,9.4-2.2,12.1-6.4c0.9-1.4,1.5-2.9,1.7-4.7c0-0.1,0-0.2,0.1-0.3l0.1-0.4L128,21.3z M10.7,22.6c0-1.3,0.5-2.1,1.7-2.6
		c0.2-0.1,0.6-0.2,0.9-0.2l0.4-0.1l35.2,0c21.6,0,43.3,0,64.9,0c1.6,0,2.5,0.5,3.1,1.5c0.2,0.4,0.3,1,0.3,1.5c0,9,0,17.9,0,26.9
		l0,6.4c0,10.3,0,20.6,0,30.9c0,1.3-0.5,2.1-1.6,2.6c-0.5,0.2-1.1,0.3-1.7,0.3c-10.2,0-20.4,0-30.5,0H64c-16.6,0-33.3,0-49.9,0
		c-1.5,0-2.4-0.5-2.9-1.5c-0.2-0.5-0.3-1-0.3-1.6c0-8.5,0-17.1,0-25.6l0-7.7L10.7,22.6z"/>
</g>
</svg>
