<?xml version="1.0" encoding="utf-8"?>
<!-- Generator: Adobe Illustrator 21.0.0, SVG Export Plug-In . SVG Version: 6.00 Build 0)  -->
<svg version="1.1" id="图层_1" xmlns="http://www.w3.org/2000/svg" xmlns:xlink="http://www.w3.org/1999/xlink" x="0px" y="0px"
	 viewBox="0 0 128 128" style="enable-background:new 0 0 128 128;" xml:space="preserve">
<style type="text/css">
	.st0{fill:#BAC6D7;}
</style>
<g>
	<path class="st0" d="M46.5,109.7c0,1-0.9,1.9-1.9,1.9c0,0,0,0,0,0l-32.4,0c-0.5,0.1-1-0.1-1.4-0.5c-0.4-0.4-0.6-0.8-0.5-1.4V18.3
		c0-1,0.9-1.9,1.9-1.9h32.3c0.5,0,1,0.2,1.4,0.5c0.4,0.3,0.6,0.8,0.6,1.3v11.7h10.3V18.2c0-3.1-1.3-6.2-3.5-8.4
		c-2.4-2.2-5.4-3.4-8.7-3.4H12.2C9,6.5,5.9,7.7,3.5,9.9C1.3,12,0,15.1,0,18.2v91.5c0,3.1,1.3,6.2,3.5,8.4c2.4,2.2,5.4,3.4,8.7,3.4
		h32.3c0.1,0,0.1,0,0.2,0c3.2,0,6.2-1.2,8.5-3.4c2.3-2.2,3.6-5.2,3.5-8.4V98.1H46.5V109.7z"/>
	<path class="st0" d="M65.9,47c-0.9-1-2.3-1.5-3.6-1.5c0,0,0,0,0,0c-1.3,0-2.6,0.5-3.6,1.5c-1,0.9-1.6,2.2-1.6,3.5
		c0,1.3,0.6,2.6,1.6,3.5L64,59H40v-7.9H14.3v25.7H40V69h24L58.7,74c-1,0.9-1.6,2.2-1.6,3.5s0.6,2.6,1.5,3.5c1,1,2.2,1.5,3.6,1.5
		c0,0,0,0,0,0c1.3,0,2.6-0.5,3.6-1.5l17.8-17L65.9,47z"/>
	<path class="st0" d="M124.5,9.9c-2.4-2.2-5.5-3.4-8.7-3.4H83.5c-3.2-0.1-6.3,1.1-8.7,3.4c-2.3,2.2-3.6,5.2-3.5,8.4v12.1h10.3l0-12
		c0.1-1,1-1.8,1.9-1.9l32.4,0c0.5-0.1,1,0.1,1.4,0.5c0.4,0.4,0.6,0.8,0.5,1.4l0,91.5c-0.1,1-1,1.8-2,1.9l-32.4,0
		c-0.5,0.1-1-0.1-1.4-0.5s-0.6-0.8-0.5-1.4V98.1H71.3v11.7c0,3.1,1.3,6.2,3.5,8.4c2.4,2.2,5.4,3.4,8.7,3.4h32.3c0.1,0,0.1,0,0.2,0
		c3.2,0,6.2-1.2,8.5-3.4c2.3-2.2,3.6-5.2,3.5-8.4V18.2C128,15.1,126.7,12,124.5,9.9z"/>
	<path class="st0" d="M87.6,51.1v25.7h25.7V51.1H87.6z M105.7,69.2H95.2V58.8h10.5V69.2z"/>
</g>
</svg>
