<?xml version="1.0" encoding="utf-8"?>
<!-- Generator: Adobe Illustrator 21.0.0, SVG Export Plug-In . SVG Version: 6.00 Build 0)  -->
<svg version="1.1" id="图层_1" xmlns="http://www.w3.org/2000/svg" xmlns:xlink="http://www.w3.org/1999/xlink" x="0px" y="0px"
	 viewBox="0 0 128 128" style="enable-background:new 0 0 128 128;" xml:space="preserve">
<style type="text/css">
	.st0{fill:#BAC6D7;}
</style>
<g>
	<g>
		<path class="st0" d="M105.5,79.7c8.8,0,16.7,5.5,19.7,13.8c3,8.3,0.5,17.6-6.3,23.3c-6.8,5.7-16.4,6.4-24,2
			c-10,6.6-21.8,9.8-33.7,9.1c-5.9-0.3-11.6-1.5-17.1-3.6l-1.5-0.6l3.9-9.3c4.8,2,9.9,3.2,15.2,3.4c9,0.5,18-1.7,25.8-6.3
			c-3.9-6.5-4-14.6-0.3-21.1C90.9,83.8,97.9,79.7,105.5,79.7L105.5,79.7z M33.6,24.9l5.5,8.5c-12.4,8-20.3,21.5-21,36.2
			c-0.2,3.5,0,7,0.6,10.4c10.4-1.9,20.6,4.1,23.8,14.2c3.2,10.1-1.6,21-11.1,25.4c-9.6,4.5-21,1.1-26.6-7.9
			c-5.6-9-3.7-20.7,4.5-27.4c-1.1-5-1.6-10.2-1.3-15.3c0.9-17.5,10-33.7,24.6-43.5L33.6,24.9z M105.5,89.8c-3.9,0-7.5,2.1-9.4,5.5
			c-1.9,3.4-1.9,7.5,0,10.9c1.9,3.4,5.5,5.5,9.4,5.5c6,0,10.9-4.9,10.9-10.9S111.5,89.8,105.5,89.8L105.5,89.8z M22.6,89.8
			c-3.9,0-7.5,2.1-9.4,5.5c-1.9,3.4-1.9,7.5,0,10.9c1.9,3.4,5.5,5.5,9.4,5.5c6,0,10.9-4.9,10.9-10.9S28.6,89.8,22.6,89.8L22.6,89.8z
			 M64,0C75.2,0,84.4,8.8,85,19.9c21.3,8.7,35.2,29.5,35,52.5l0,1.2l-10.1-0.3c0.6-18.5-10.1-35.6-26.9-43.3
			c-4.5,9.4-15.1,14.1-25.1,11c-9.9-3-16.1-12.9-14.6-23.2C44.8,7.6,53.6,0,64,0L64,0z M64,10.1c-6,0-10.9,4.9-10.9,10.9
			S58,31.9,64,31.9S74.9,27,74.9,21S70,10.1,64,10.1L64,10.1z M64,10.1"/>
	</g>
</g>
</svg>
