<?xml version="1.0" encoding="utf-8"?>
<!-- Generator: Adobe Illustrator 21.0.0, SVG Export Plug-In . SVG Version: 6.00 Build 0)  -->
<svg version="1.1" id="图层_1" xmlns="http://www.w3.org/2000/svg" xmlns:xlink="http://www.w3.org/1999/xlink" x="0px" y="0px"
	 viewBox="0 0 128 128" style="enable-background:new 0 0 128 128;" xml:space="preserve">
<style type="text/css">
	.st0{fill:#BAC6D7;}
</style>
<g>
	<path class="st0" d="M111.4,0l-0.5,0v0H16.5c-2.2,0-4.4,0.9-6,2.5C9,4.1,8.1,6.3,8.2,8.5v111c0,4.6,3.7,8.4,8.4,8.5h94.9
		c2.2,0,4.4-0.9,6-2.5c1.6-1.6,2.4-3.8,2.4-6V8.5C119.8,3.8,116,0,111.4,0z M111,9V119H17V9H111z"/>
	<g>
		<path class="st0" d="M77.7,71.5c-11.2,0-20.2,9.2-20.2,20.3v0c0.1,11.1,9.1,20.1,20.2,20.1c0,0,0.1,0,0.1,0
			c11.1,0,20.2-9.1,20.2-20.3C97.9,80.5,88.8,71.5,77.7,71.5z M89.1,91.8c0,6.3-5.1,11.4-11.4,11.4c0,0,0,0,0,0
			c-6.3,0-11.4-5.1-11.4-11.4c0-6.3,5.1-11.4,11.4-11.4c0,0,0,0,0,0c3,0,5.9,1.2,8,3.3C88,85.9,89.1,88.8,89.1,91.8L89.1,91.8z"/>
		<path class="st0" d="M46.1,91.2l-9.8,0c-1.6-0.1-3.2,0.8-4.1,2.2c-0.9,1.4-0.9,3.2,0,4.6c0.8,1.4,2.3,2.2,3.8,2.2
			c0.1,0,0.1,0,0.2,0l9.8,0c2.4-0.1,4.3-2.1,4.3-4.5C50.4,93.3,48.5,91.3,46.1,91.2z"/>
		<rect x="73.3" y="87.2" class="st0" width="8.9" height="9"/>
		<path class="st0" d="M52.1,28.8L52.1,28.8h29.7c2.4-0.1,4.3-2.1,4.3-4.5c0-2.4-1.9-4.4-4.3-4.5l-29.7,0c-2.4,0.1-4.3,2.1-4.3,4.5
			C47.8,26.7,49.7,28.7,52.1,28.8z"/>
		<path class="st0" d="M36.1,60.5c0.1,0,0.1,0,0.2,0l57.4,0c2.4-0.1,4.3-2.1,4.3-4.5c0-2.4-1.9-4.4-4.3-4.5l-57.3,0
			c-1.6-0.1-3.2,0.8-4.1,2.2c-0.9,1.4-0.9,3.2,0,4.6C33.1,59.7,34.5,60.5,36.1,60.5z"/>
		<path class="st0" d="M36.1,44.7c0.1,0,0.1,0,0.2,0l57.4,0c2.4-0.1,4.3-2.1,4.3-4.5c0-2.4-1.9-4.4-4.3-4.5l-57.3,0
			c-1.6-0.1-3.2,0.8-4.1,2.2c-0.9,1.4-0.9,3.2,0,4.6C33.1,43.8,34.5,44.7,36.1,44.7z"/>
	</g>
</g>
</svg>
