<?xml version="1.0" encoding="utf-8"?>
<!-- Generator: Adobe Illustrator 21.0.0, SVG Export Plug-In . SVG Version: 6.00 Build 0)  -->
<svg version="1.1" id="图层_1" xmlns="http://www.w3.org/2000/svg" xmlns:xlink="http://www.w3.org/1999/xlink" x="0px" y="0px"
	 viewBox="0 0 128 128" style="enable-background:new 0 0 128 128;" xml:space="preserve">
<style type="text/css">
	.st0{fill:#BAC6D7;}
</style>
<g>
	<path class="st0" d="M127.1,0.9c-0.5-0.5-1.3-0.9-2.1-0.9H2.9C1.3,0,0,1.3,0,2.9v52.8c0,1.6,1.3,2.9,2.9,2.9h122.2c0,0,0,0,0,0
		c1.6,0,2.9-1.3,2.9-2.9V2.9C128,2.2,127.7,1.4,127.1,0.9z M117.1,13.1v32.4c0,0.6-0.2,1.1-0.6,1.5c-0.4,0.4-1,0.6-1.5,0.6H13.1
		c-1.2,0-2.2-1-2.2-2.2V13.1c0-1.2,1-2.2,2.2-2.2h101.8c0.6,0,1.1,0.2,1.5,0.6C116.8,12,117.1,12.5,117.1,13.1z"/>
	<path class="st0" d="M55.7,69.3H2.9c-0.8,0-1.5,0.3-2.1,0.9C0.3,70.7,0,71.5,0,72.3v52.8c0,1.6,1.3,2.9,2.9,2.9h52.8
		c1.6,0,2.9-1.3,2.9-2.9V72.3c0-0.8-0.3-1.5-0.9-2.1C57.2,69.6,56.5,69.3,55.7,69.3z M47.7,82.4v32.4c0,1.2-1,2.2-2.2,2.2H13.1
		c-1.2,0-2.2-1-2.2-2.2V82.4c0-0.6,0.2-1.1,0.6-1.5c0.4-0.4,1-0.6,1.5-0.6h32.4c0.6,0,1.1,0.2,1.5,0.6
		C47.5,81.3,47.7,81.9,47.7,82.4z"/>
	<path class="st0" d="M125.1,69.3H71c-1.9,0-2.9,1-2.9,2.9v5.1c0,1.9,1,2.9,2.9,2.9h54.1c1.9,0,2.9-1,2.9-2.9v-5.1
		C128,70.3,127,69.3,125.1,69.3z"/>
	<path class="st0" d="M125.1,93.2H71c-1.9,0-2.9,1-2.9,2.9v5.1c0,1.9,1,2.9,2.9,2.9h54.1c1.9,0,2.9-1,2.9-2.9v-5.1
		C128,94.2,127,93.2,125.1,93.2z"/>
	<path class="st0" d="M125.1,117H71c-1.9,0-2.9,1-2.9,2.9v5.1c0,1.9,1,2.9,2.9,2.9h54.1c1.9,0,2.9-1,2.9-2.9V120
		C128,118.1,127,117,125.1,117z"/>
</g>
</svg>
