<?xml version="1.0" encoding="utf-8"?>
<!-- Generator: Adobe Illustrator 21.0.0, SVG Export Plug-In . SVG Version: 6.00 Build 0)  -->
<svg version="1.1" id="图层_1" xmlns="http://www.w3.org/2000/svg" xmlns:xlink="http://www.w3.org/1999/xlink" x="0px" y="0px"
	 viewBox="0 0 128 128" style="enable-background:new 0 0 128 128;" xml:space="preserve">
<style type="text/css">
	.st0{fill:#BAC6D7;}
</style>
<g>
	<path class="st0" d="M84.1,57.5H42.9c-2.6,0-4.8,2.1-4.8,4.8c0,2.6,2.1,4.8,4.8,4.8h41.2c2.6,0,4.8-2.1,4.8-4.8
		S86.7,57.5,84.1,57.5z"/>
	<path class="st0" d="M84.1,40.5H42.9c-2.6,0-4.8,3.1-4.8,5.8c0,2.6,2.1,4.8,4.8,4.8h41.2c2.6,0,4.8-2.1,4.8-4.8
		C88.9,43.7,86.7,40.5,84.1,40.5z"/>
	<path class="st0" d="M123.5,91l-0.1-0.1c-3.6-2.5-8.2-3.8-13.1-3.7c-0.4,0-0.7,0-1.1,0l-38.4,8.7c0.4-3-0.3-6-2-8.7
		c-1.8-2.5-4.5-4.3-7.6-4.9l-25.8-4c-3.6-0.4-12.7,0.9-28,3.9l-0.2,0c-2.2,0.6-4.2,1.4-4.8,3.5c-0.3,1.1-0.3,2.3,0.2,3.3
		C3,90,4,91.5,6.6,91.5l0.4,0c14.8-2.8,24-4.1,27.4-3.8l25.2,3.9c0.6,0.2,1.3,0.6,1.6,1c0.5,1,0.6,2.1,0.3,3.1
		c-0.2,1-0.9,1.8-1.7,2.3c-0.9,0.5-1.9,0.6-2.9,0.3l-24.7-4.2c-1.6-0.3-3.3,0.4-4.3,1.6c-1.1,1.3-1.3,3-0.8,4.6
		c0.6,1.5,2,2.7,3.6,2.9l24.3,4c1,0.2,2.1,0.4,3.2,0.4c1,0.2,2,0.3,2.9,0l50-11.4c1.9,0,3.8,0.5,5.2,1.4c0,0,0.1,0.1,0.1,0.1
		c-24.9,8.5-40.7,13.8-47,15.8c-0.4,0.1-0.9,0.3-1.3,0.4c-4.5,1.1-9.6,1.2-15.1,0.2c-0.8-0.1-1.5-0.3-2.2-0.5l-0.6-0.2
		c-0.3-0.1-0.5-0.1-0.5-0.1l-43.1-7.7c-1.8-0.3-3.6,0.1-4.9,1.2c-1.5,1.2-2,3.2-1.3,4.9c0.6,1.6,2.1,2.7,4,3l42.2,7.6
		c5.4,1.4,10.2,2.1,14.4,2.1c4.6,0,8.9-0.8,13-2.4l50.5-16.9c2-0.6,3.3-2.2,3.4-3.9C128.4,97.4,126.8,93.7,123.5,91z"/>
	<path class="st0" d="M17.5,73.7c2.6,0,4.8-2.1,4.8-4.8V33.5h83.4v35.4c0,2.6,2.1,4.8,4.8,4.8c2.6,0,4.8-2.1,4.8-4.8V17.7
		c0-7.8-6.6-14.1-14.8-14.1H27.5c-8.2,0-14.8,6.3-14.8,14.1v51.2C12.7,71.6,14.9,73.7,17.5,73.7z M22.3,24v-6.2
		c0-2.5,2.4-4.6,5.2-4.6h72.9c2.9,0,5.2,2.1,5.2,4.6V24H22.3z"/>
</g>
</svg>
