<?xml version="1.0" encoding="utf-8"?>
<!-- Generator: Adobe Illustrator 21.0.0, SVG Export Plug-In . SVG Version: 6.00 Build 0)  -->
<svg version="1.1" id="图层_1" xmlns="http://www.w3.org/2000/svg" xmlns:xlink="http://www.w3.org/1999/xlink" x="0px" y="0px"
	 viewBox="0 0 128 128" style="enable-background:new 0 0 128 128;" xml:space="preserve">
<style type="text/css">
	.st0{fill:#BAC6D7;}
</style>
<g>
	<path class="st0" d="M72.4,91.7H55.6c-7.5,0-13.6,6.1-13.6,13.6s6.1,13.6,13.6,13.6h16.8c7.5,0,13.6-6.1,13.6-13.6
		S79.9,91.7,72.4,91.7z M75.6,105.3c0,1.8-1.4,3.2-3.2,3.2H55.6c-1.8,0-3.2-1.4-3.2-3.2c0-1.8,1.4-3.2,3.2-3.2h16.8
		C74.2,102.1,75.6,103.5,75.6,105.3z"/>
	<path class="st0" d="M25.2,100.1c-3.9-0.2-7.4-1.8-10.2-4.6c-3-3-4.6-7-4.6-11.2c0-4.2,1.6-8.2,4.6-11.2c3-3,7-4.6,11.2-4.6h9.4
		V58.1h-9.4C11.7,58.1,0,69.9,0,84.3c0,14.1,11.2,25.7,25.2,26.2v9.8l15-15l-15-15V100.1z"/>
	<path class="st0" d="M72.4,7.7H55.6C48.1,7.7,42,13.8,42,21.3s6.1,13.6,13.6,13.6h16.8c7.5,0,13.6-6.1,13.6-13.6S79.9,7.7,72.4,7.7
		z M75.6,21.3c0,1.8-1.4,3.2-3.2,3.2H55.6c-1.8,0-3.2-1.4-3.2-3.2c0-1.8,1.4-3.2,3.2-3.2h16.8C74.2,18.1,75.6,19.5,75.6,21.3z"/>
	<path class="st0" d="M101.8,16.1h-9.4v10.4h9.4c4.2,0,8.2,1.6,11.2,4.6c3,3,4.6,7,4.6,11.2c0,4.2-1.6,8.2-4.6,11.2
		c-2.8,2.8-6.4,4.4-10.2,4.6v-9.8l-15,15l15,15v-9.8c14-0.5,25.2-12.1,25.2-26.2C128,27.9,116.3,16.1,101.8,16.1z"/>
	<path class="st0" d="M72.4,49.7H55.6c-7.5,0-13.6,6.1-13.6,13.6s6.1,13.6,13.6,13.6h16.8c7.5,0,13.6-6.1,13.6-13.6
		S79.9,49.7,72.4,49.7z M75.6,63.3c0,1.8-1.4,3.2-3.2,3.2H55.6c-1.8,0-3.2-1.4-3.2-3.2c0-1.8,1.4-3.2,3.2-3.2h16.8
		C74.2,60.1,75.6,61.5,75.6,63.3z"/>
</g>
</svg>
