<?xml version="1.0" encoding="utf-8"?>
<!-- Generator: Adobe Illustrator 21.0.0, SVG Export Plug-In . SVG Version: 6.00 Build 0)  -->
<svg version="1.1" id="图层_1" xmlns="http://www.w3.org/2000/svg" xmlns:xlink="http://www.w3.org/1999/xlink" x="0px" y="0px"
	 viewBox="0 0 128 128" style="enable-background:new 0 0 128 128;" xml:space="preserve">
<style type="text/css">
	.st0{fill:#BAC6D7;}
</style>
<g>
	<path class="st0" d="M93.7,0H10.3C8.9,0,7.5,0.6,6.4,1.6c-1,1-1.6,2.4-1.6,3.9v116.9c0,1.5,0.6,2.9,1.6,3.9c1,1,2.4,1.6,3.9,1.6
		h107.3c1.5,0,2.9-0.6,3.9-1.6c1-1,1.6-2.4,1.6-3.9V33.9L93.7,0z M15.9,11.1h72.8L112.1,38v78.9H15.9V11.1z"/>
	<rect x="40.3" y="85.2" class="st0" width="47.4" height="11.1"/>
	<polygon class="st0" points="64,58.8 46.8,33.3 37.6,39.5 64,78.7 90.3,39.5 81.1,33.3 	"/>
</g>
</svg>
