<?xml version="1.0" encoding="utf-8"?>
<!-- Generator: Adobe Illustrator 21.0.0, SVG Export Plug-In . SVG Version: 6.00 Build 0)  -->
<svg version="1.1" id="图层_1" xmlns="http://www.w3.org/2000/svg" xmlns:xlink="http://www.w3.org/1999/xlink" x="0px" y="0px"
	 viewBox="0 0 128 128" style="enable-background:new 0 0 128 128;" xml:space="preserve">
<style type="text/css">
	.st0{fill:#BAC6D7;}
</style>
<path class="st0" d="M100.2,77.8l0.7-0.6c1.1-1.1,1.6-2.2,1.6-3.4c0-1.2-0.5-2.3-1.6-3.4c-2.2-2.2-4.6-2.2-6.8,0l-8.7,8.7l-9.1-9.1
	l14.3-13.9c1.9,0.6,5.6,1.7,8.7,1.7c15.8,0,28.7-12.9,28.7-28.7c0-5.1-1.2-9.6-3.6-13.7c-0.3-1.5-2.4-2.4-3.6-2.4
	c-1.9,0-3.1,0-4.3,1.2l-9.5,9.5h-1.3v-0.4l9.3-10.2c1.4-0.4,1.4-2.6,1.4-3.6c0-1.3-1.1-2.4-2.1-3.4L114.2,6L114,5.9
	c-6.2-3.1-11.6-4.6-16.5-4.6C81.7,1.3,68.8,14.2,68.8,30c0,3.5,0.8,7,1.7,10.4l-11.7,12L33.7,27.4l1-1.1c2.2-2.2,2.2-4.6,0-6.8
	L19.6,4.3c-2.2-2.2-4.6-2.2-6.8,0l-8.9,8.9c-1.2,1.2-1.2,2.4-1.2,3.4c0,1,0,2.2,1.2,3.4l15.5,16.4h0.4c0.2,0,0.6,0.2,0.9,0.3
	c0.5,0.3,1.1,0.6,1.8,0.6c1.3,0,3.3-1.1,4.3-2.1l0.6-0.6l24.8,24.8L39.2,72.6c-3.5-1.6-7-2.5-10.5-2.5C12.9,70.2,0,83,0,98.9
	c0,5.1,1.2,9.6,3.6,13.7C3.9,114,6,115,7.2,115c1.9,0,3.1,0,4.3-1.2l9.5-9.5h0.4v0.4l-9.3,10.2c-1.4,0.4-1.4,2.6-1.4,3.6
	c0,1.3,1.1,2.4,2.1,3.4L13,122c5,3,10.5,4.6,15.7,4.6c3.7,0,6.5-0.9,9.2-1.8c7.1-2.2,13-7.3,16.6-14.2c3.4-6.6,4.1-14.3,2.1-21.3
	l12.9-12.6l9.2,9.2L70,94.6l-0.1,0.1l-0.1,0.1c-1,2.1-1,4.2,0,6.2l0.3,0.5h0.6c0.2,0,0.6,0.2,0.9,0.3c0.5,0.3,1.1,0.6,1.8,0.6
	c1.3,0,2.4-1.1,3.4-2.1l1.1-1.1l20.7,20.7l0.1,0.1c4.2,3.1,7.9,4.7,11.3,4.7c8.3,0,15.3-7.4,15.3-16.2c0-3.7-1.7-7.5-4.8-10.5
	L100.2,77.8z M45.7,90.3c0.9,2.7,1.7,5.2,1.7,7.7c0,10.1-8.6,18.7-18.7,18.7c-1.4,0-3.3,0-5.3-0.4l6.8-6.8c0.1-0.1,1.1-1.2,1.2-2.4
	l0.9-8l0-0.1c0-1.9,0-3.1-1.2-4.3c-1.2-1.2-3.3-1.2-4.4-1.2L18,94.3c-1.2,0-1.5,0.1-2.4,1.1l-5.5,4.8v-3.2c0-5.1,2.1-9.9,5.8-13.3
	c3.5-3.3,8.1-4.8,12.8-4.4c3.5,0,6.9,0,9.3,1.6l0.1,0.1c2.2,1.1,4.4,1,5.6-0.2l14.9-14.9l3.5,3.5L46.8,84.8
	C45.5,86,44.7,88.2,45.7,90.3z M81.5,39.9v-0.2l-0.1-0.2c-1.6-3.3-2.6-5.8-2.6-9.4c0-10.1,8.6-18.7,18.7-18.7h0.2l0.2-0.1
	c0.9-0.5,2.4-0.3,3.8-0.1c0,0,0,0,0,0l-5.8,6.6c-0.1,0.1-1.1,1.2-1.2,2.4l-0.9,8l0,0.1c0,1.7,0,2.9,0.9,4c0.4,1.4,2.6,1.4,3.7,1.4
	l8.8-0.9c1,0,2.2,0,3.3-1.1l6.2-5.4c0.2,0.8,0.2,1.9,0.2,2.9V30c0,11.7-10,18.7-19.6,18.7c-2.5,0-5-0.8-7.7-1.7
	c-2.2-1.1-4.3,0-6.2,0.9L83.5,48L68.9,62.6l-3.5-3.5L79.4,45C81.5,43,81.5,40.8,81.5,39.9z M113.7,112.5c-2.3,2.2-6.1,3.1-8.4,0.8
	L84.8,92.8l8.6-8.3l20.4,20.4C115.2,107.2,115.2,110.2,113.7,112.5z M25.5,22.9l-2.1,2.1L14,15.7l1.3-1.3L25.5,22.9z"/>
</svg>
