<?xml version="1.0" encoding="utf-8"?>
<!-- Generator: Adobe Illustrator 21.0.0, SVG Export Plug-In . SVG Version: 6.00 Build 0)  -->
<svg version="1.1" id="图层_1" xmlns="http://www.w3.org/2000/svg" xmlns:xlink="http://www.w3.org/1999/xlink" x="0px" y="0px"
	 viewBox="0 0 128 128" style="enable-background:new 0 0 128 128;" xml:space="preserve">
<style type="text/css">
	.st0{fill:#BAC6D7;}
</style>
<g>
	<g>
		<path class="st0" d="M126.1,77.6c-0.8-3-2.7-5.5-5.4-7.1l-6.2-3.6c-0.2-0.1-0.3-0.3-0.3-0.4c0-0.8,0.1-1.6,0.1-2.5
			c0-0.8,0-1.6-0.1-2.5c0-0.2,0.1-0.3,0.3-0.4l6.2-3.6c5.6-3.2,7.5-10.3,4.3-15.9l-11.1-19.3c-3.2-5.6-10.3-7.5-15.9-4.3l-6.2,3.6
			c-0.2,0.1-0.4,0.1-0.5,0c-1.4-0.9-2.8-1.7-4.2-2.4c-0.2-0.1-0.3-0.2-0.3-0.4v-7.2C86.8,5.2,81.5,0,75.1,0H52.9
			c-6.4,0-11.6,5.2-11.6,11.6v7.2c0,0.2-0.1,0.3-0.3,0.4c-1.4,0.7-2.8,1.6-4.2,2.4c-0.1,0.1-0.3,0.1-0.5,0L30,18.1
			c-5.6-3.2-12.7-1.3-15.9,4.3L3,41.6c-3.2,5.6-1.3,12.7,4.3,15.9l6.2,3.6c0.2,0.1,0.3,0.3,0.3,0.4c0,0.8-0.1,1.6-0.1,2.5
			s0,1.6,0.1,2.5c0,0.2-0.1,0.3-0.3,0.4l-6.2,3.6C1.7,73.7-0.2,80.8,3,86.4l11.1,19.3c1.6,2.7,4.1,4.6,7.1,5.4
			c3,0.8,6.1,0.4,8.8-1.2l6.2-3.6c0.2-0.1,0.4-0.1,0.5,0c1.4,0.9,2.8,1.7,4.2,2.4c0.2,0.1,0.3,0.2,0.3,0.4v7.2
			c0,6.4,5.2,11.6,11.6,11.6h22.3c6.4,0,11.6-5.2,11.6-11.6v-7.2c0-0.2,0.1-0.3,0.3-0.4c1.4-0.7,2.8-1.6,4.2-2.4
			c0.1-0.1,0.3-0.1,0.5,0l6.2,3.6c2.7,1.6,5.8,2,8.8,1.2c3-0.8,5.5-2.7,7.1-5.4L125,86.4C126.5,83.7,127,80.5,126.1,77.6L126.1,77.6
			z M115.3,80.8l-11.1,19.3c-0.1,0.2-0.5,0.3-0.7,0.2l-6.2-3.6c-3.8-2.2-8.4-2.1-12.1,0.3c-1.1,0.7-2.2,1.3-3.3,1.9
			c-3.9,2-6.3,6-6.3,10.3v7.2c0,0.3-0.2,0.5-0.5,0.5H52.9c-0.3,0-0.5-0.2-0.5-0.5v-7.2c0-4.3-2.4-8.3-6.3-10.3
			c-1.1-0.6-2.2-1.2-3.3-1.9c-1.9-1.2-4.1-1.9-6.3-1.9c-2,0-4,0.5-5.8,1.6l-6.2,3.6c-0.1,0.1-0.2,0.1-0.4,0c-0.1,0-0.2-0.1-0.3-0.2
			L12.7,80.8c-0.1-0.2,0-0.6,0.2-0.7l6.2-3.6c3.8-2.2,6-6.3,5.8-10.6c-0.1-1.3-0.1-2.6,0-3.8c0.2-4.4-2-8.4-5.8-10.6l-6.2-3.6
			c-0.2-0.1-0.3-0.5-0.2-0.7l11.1-19.3c0.1-0.2,0.5-0.3,0.7-0.2l6.2,3.6c3.8,2.2,8.4,2.1,12.1-0.3c1.1-0.7,2.2-1.3,3.3-1.9
			c3.9-2,6.3-6,6.3-10.3v-7.2c0-0.3,0.2-0.5,0.5-0.5h22.3c0.3,0,0.5,0.2,0.5,0.5v7.2c0,4.3,2.4,8.3,6.3,10.3
			c1.1,0.6,2.2,1.2,3.3,1.9c3.7,2.4,8.3,2.5,12.1,0.3l6.2-3.6c0.2-0.1,0.6,0,0.7,0.2l11.1,19.3c0.1,0.2,0,0.6-0.2,0.7l-6.2,3.6
			c-3.8,2.2-6,6.3-5.8,10.6c0.1,1.3,0.1,2.6,0,3.8c-0.2,4.4,2,8.4,5.8,10.6l6.2,3.6C115.4,80.3,115.5,80.6,115.3,80.8L115.3,80.8z
			 M115.3,80.8"/>
	</g>
	<path class="st0" d="M64,38.9c-13.9,0-25.2,11.3-25.2,25.2c0,13.9,11.3,25.2,25.2,25.2S89.1,77.9,89.1,64
		C89.1,50.1,77.8,38.9,64,38.9L64,38.9z M64,78c-7.7,0-14-6.3-14-14c0-7.7,6.3-14,14-14c7.7,0,14,6.3,14,14C78,71.7,71.7,78,64,78
		L64,78z M64,78"/>
</g>
</svg>
