<?xml version="1.0" encoding="utf-8"?>
<!-- Generator: Adobe Illustrator 21.0.0, SVG Export Plug-In . SVG Version: 6.00 Build 0)  -->
<svg version="1.1" id="图层_1" xmlns="http://www.w3.org/2000/svg" xmlns:xlink="http://www.w3.org/1999/xlink" x="0px" y="0px"
	 viewBox="0 0 128 128" style="enable-background:new 0 0 128 128;" xml:space="preserve">
<style type="text/css">
	.st0{fill:#BAC6D7;}
</style>
<g>
	<path class="st0" d="M68.2,83.2h17.4c2,0,3.1-1.1,3.1-3.1v-4.8c0-2-1.1-3.1-3.1-3.1H68.2c-2,0-3.1,1.1-3.1,3.1V80
		C65.1,82,66.2,83.2,68.2,83.2z"/>
	<path class="st0" d="M116.8,24H98.4V5.5c0-2.8-2.7-5.5-5.5-5.5H11.2C8.4,0,5.6,2.7,5.6,5.5v92.9c0,2.8,2.7,5.5,5.5,5.5h18.5v18.5
		c0,2.8,2.7,5.5,5.5,5.5h80.4c4,0,6.9-3.3,6.9-7.9V29.6C122.4,26.8,119.6,24,116.8,24z M111.3,34.3v82.6H39.9V34.3H111.3z
		 M87.3,10.3V24H35.2c-2.8,0-5.5,2.7-5.5,5.5v63.3H15.9V10.3H87.3z"/>
	<path class="st0" d="M68.2,63.1h30.2c2,0,3.1-1.1,3.1-3.1v-4.8c0-2-1.1-3.1-3.1-3.1H68.2c-2,0-3.1,1.1-3.1,3.1V60
		C65.1,61.1,66.1,63.1,68.2,63.1z"/>
	<path class="st0" d="M53.3,83.2h4.5c2,0,3.1-1.1,3.1-3.1v-4.8c0-2-1.1-3.1-3.1-3.1h-4.5c-2,0-3.1,1.1-3.1,3.1V80
		C50.2,82,51.3,83.2,53.3,83.2z"/>
	<path class="st0" d="M53.3,63.1h4.5c2,0,3.1-1.1,3.1-3.1v-4.8c0-2-1.1-3.1-3.1-3.1h-4.5c-2,0-3.1,1.1-3.1,3.1V60
		C50.2,62,51.3,63.1,53.3,63.1z"/>
</g>
</svg>
