<?xml version="1.0" encoding="utf-8"?>
<!-- Generator: Adobe Illustrator 21.0.0, SVG Export Plug-In . SVG Version: 6.00 Build 0)  -->
<svg version="1.1" id="图层_1" xmlns="http://www.w3.org/2000/svg" xmlns:xlink="http://www.w3.org/1999/xlink" x="0px" y="0px"
	 viewBox="0 0 128 128" style="enable-background:new 0 0 128 128;" xml:space="preserve">
<style type="text/css">
	.st0{fill:#BAC6D7;}
</style>
<g>
	<path class="st0" d="M74.8,16.8h43.2c3.3,0,5.9-2.6,5.9-5.9c0-3.3-2.6-5.9-5.9-5.9H74.8c-3.3,0-5.9,2.6-5.9,5.9
		C68.9,14.2,71.5,16.8,74.8,16.8z"/>
	<path class="st0" d="M117.9,41.6H74.8c-3.3,0-5.9,2.6-5.9,5.9c0,3.3,2.6,5.9,5.9,5.9h43.2c3.3,0,5.9-2.6,5.9-5.9
		C123.9,44.2,121.2,41.6,117.9,41.6z"/>
	<path class="st0" d="M74.8,86.4h43.2c3.3,0,5.9-2.6,5.9-5.9c0-3.3-2.6-5.9-5.9-5.9H74.8c-3.3,0-5.9,2.6-5.9,5.9
		C68.9,83.8,71.5,86.4,74.8,86.4z"/>
	<path class="st0" d="M117.9,111.2H74.8c-3.3,0-5.9,2.6-5.9,5.9c0,3.3,2.6,5.9,5.9,5.9h43.2c3.3,0,5.9-2.6,5.9-5.9
		C123.9,113.8,121.2,111.2,117.9,111.2z"/>
	<path class="st0" d="M39.2,0H23.5C11.7,0,2.1,9.6,2.1,21.3v15.7c0,11.8,9.6,21.3,21.3,21.3h15.7c11.8,0,21.3-9.6,21.3-21.3V21.3
		C60.6,9.6,51,0,39.2,0z M48.7,37.1c0,5.3-4.3,9.5-9.5,9.5H23.5c-5.3,0-9.5-4.3-9.5-9.5V21.3c0-5.3,4.3-9.5,9.5-9.5h15.7
		c5.3,0,9.5,4.3,9.5,9.5V37.1z"/>
	<path class="st0" d="M39.2,69.6H23.5c-11.8,0-21.3,9.6-21.3,21.3v15.7c0,11.8,9.6,21.3,21.3,21.3h15.7c11.8,0,21.3-9.6,21.3-21.3
		V90.9C60.6,79.1,51,69.6,39.2,69.6z M48.7,106.7c0,5.3-4.3,9.5-9.5,9.5H23.5c-5.3,0-9.5-4.3-9.5-9.5V90.9c0-5.3,4.3-9.5,9.5-9.5
		h15.7c5.3,0,9.5,4.3,9.5,9.5V106.7z"/>
</g>
</svg>
