<?xml version="1.0" encoding="utf-8"?>
<!-- Generator: Adobe Illustrator 21.0.0, SVG Export Plug-In . SVG Version: 6.00 Build 0)  -->
<svg version="1.1" id="图层_1" xmlns="http://www.w3.org/2000/svg" xmlns:xlink="http://www.w3.org/1999/xlink" x="0px" y="0px"
	 viewBox="0 0 128 128" style="enable-background:new 0 0 128 128;" xml:space="preserve">
<style type="text/css">
	.st0{fill:#BAC6D7;}
</style>
<path class="st0" d="M122.9,62.2c-3-3.3-7-5.4-11.3-6c-0.5-0.2-1.1-0.2-1.6-0.2h-4.5V36.7c0-7.8-6.4-14.2-14.2-14.2H72.1v-3.3
	C72.1,8.6,63.5,0,52.9,0C42.3,0,33.7,8.6,33.7,19.2v3.3H14.3c-7.8,0-14.2,6.4-14.2,14.2v23.9c0,3.2,2.6,5.8,5.8,5.8h9
	c4.8,0,8.7,3.9,8.7,8.7c0,4.8-3.9,8.7-8.7,8.7h-9c-3.2,0-5.8,2.6-5.8,5.8v24.1c0,7.8,6.4,14.2,14.2,14.2h24.1c3.2,0,5.8-2.6,5.8-5.8
	v-8.9c0-4.8,3.9-8.7,8.7-8.7s8.7,3.9,8.7,8.7v8.9c0,3.2,2.6,5.8,5.8,5.8h24c7.8,0,14.2-6.4,14.2-14.2V94.3l1.6,0
	c1.1,0.1,2.3,0.1,3.4,0c4.7-0.5,9.1-2.7,12.3-6.2c3.2-3.5,5-8.1,5-12.9C127.9,70.4,126.2,65.8,122.9,62.2z M52.8,93
	c-11.2,0-20.3,9.1-20.3,20.3v3.1H14.3c-1.4,0-2.6-1.2-2.6-2.6V95.4h3.2c11.2,0,20.3-9.1,20.3-20.3c0-11.2-9.1-20.3-20.3-20.3h-3.2
	V36.7c0-1.4,1.2-2.6,2.6-2.6h25.2c3.2,0,5.8-2.6,5.8-5.8v-9.1c0-4.2,3.4-7.6,7.6-7.6c4.2,0,7.6,3.4,7.6,7.6v9.1
	c0,3.2,2.6,5.8,5.8,5.8h25c1.4,0,2.6,1.2,2.6,2.6v25c0,3.2,2.6,5.8,5.8,5.8l9.4,0l0.3,0c3.9,0.4,6.8,3.6,6.8,7.6
	c0,3.9-2.9,7.2-6.9,7.6c-0.5,0.1-1,0.1-1.5,0c-0.2,0-0.3,0-0.5,0h-7.7c-3.2,0-5.8,2.6-5.8,5.8v25.3c0,1.4-1.2,2.6-2.6,2.6H73.1v-3.1
	C73.1,102.1,64,93,52.8,93z"/>
</svg>
