<?xml version="1.0" encoding="utf-8"?>
<!-- Generator: Adobe Illustrator 21.0.0, SVG Export Plug-In . SVG Version: 6.00 Build 0)  -->
<svg version="1.1" id="图层_1" xmlns="http://www.w3.org/2000/svg" xmlns:xlink="http://www.w3.org/1999/xlink" x="0px" y="0px"
	 viewBox="0 0 128 128" style="enable-background:new 0 0 128 128;" xml:space="preserve">
<style type="text/css">
	.st0{fill:#BAC6D7;}
</style>
<g>
	<g>
		<path class="st0" d="M88.4,94.3c2.4,0,4.3-1.9,4.3-4.3c0-2.4-1.9-4.3-4.3-4.3c-2.4,0-4.3,1.9-4.3,4.3C84.1,92.3,86,94.3,88.4,94.3
			L88.4,94.3z M88.4,103.9c-7.7,0-13.9-6.2-13.9-13.9c0-7.7,6.2-13.9,13.9-13.9c7.7,0,13.9,6.2,13.9,13.9
			C102.3,97.7,96.1,103.9,88.4,103.9L88.4,103.9z M88.4,103.9"/>
		<path class="st0" d="M77.9,118.6C77.9,118.6,77.9,118.6,77.9,118.6L77.9,118.6z M76.3,117.7c0.6-0.6,1.4-1.3,2.2-1.9
			c3-2.3,6-3.5,9-3.5c3,0,6,1.3,9,3.6c0.9,0.7,1.6,1.3,2.2,1.9l5.3-3.1c0-0.1-0.1-0.2-0.1-0.3c-0.4-1.4-0.6-2.7-0.6-4.1
			c0-8,5.6-14.8,13.2-16.2c0.2-1.5,0.4-3.1,0.4-4.3c0-1.2-0.1-2.8-0.4-4.3c-7.5-1.4-13.2-8.2-13.2-16.2c0-1.4,0.2-2.8,0.6-4.2
			c0-0.1,0-0.1,0.1-0.2l-5.2-3c-0.7,0.6-1.4,1.2-2.2,1.8c-2.9,2.1-5.8,3.3-8.7,3.3c-2.9,0-5.9-1.2-8.8-3.4c-0.8-0.6-1.5-1.2-2.2-1.8
			l-5.5,3.2l0,0.2c0.4,1.4,0.6,2.8,0.6,4.2c0,8-5.6,14.8-13.1,16.2c0,0.2-0.1,0.5-0.1,0.7c-0.2,1.4-0.3,2.6-0.3,3.6
			c0,1,0.1,2.2,0.3,3.6c0,0.2,0.1,0.5,0.1,0.7c7.5,1.4,13.1,8.2,13.1,16.2c0,1.4-0.2,2.8-0.6,4.2l-0.1,0.2L76.3,117.7z M98.4,128
			c-1.5,0-3-0.5-4.3-1.3c-0.5-0.3-0.9-0.7-1.3-1.1c-0.7-0.7-1.4-1.4-2.1-2c-1.5-1.2-2.6-1.7-3.2-1.7c-0.6,0-1.7,0.5-3.1,1.6
			c-0.8,0.6-1.5,1.2-2.2,2c-0.4,0.4-0.9,0.8-1.4,1.2c-1.7,1.1-4,1.6-6,1c-0.6-0.2-1.2-0.4-1.8-0.7l-8.2-4.8c-3.2-1.8-4.4-5.8-3-9.1
			c0.3-0.7,0.6-1.8,0.6-2.6c0-3.7-2.7-6.6-6-6.8c-3.4-0.2-6.1-2.7-6.7-6c-0.2-1-0.3-1.9-0.4-2.9c-0.2-1.7-0.3-3.3-0.3-4.8
			c0-1.4,0.1-3,0.3-4.8c0.1-1.1,0.3-2.1,0.4-2.9c0.6-3.3,3.3-5.8,6.7-6c3.4-0.2,6-3.1,6-6.8c0-0.8-0.3-1.9-0.6-2.6
			c-1.4-3.4-0.1-7.3,3.1-9.2l8.7-5c1.1-0.6,2.2-0.9,3.5-0.9c1.6,0,3.1,0.5,4.4,1.3c0.4,0.3,0.8,0.7,1.2,1c0.7,0.7,1.4,1.3,2.1,1.9
			c1.4,1.1,2.5,1.5,3.1,1.5c0.6,0,1.6-0.4,3.1-1.5c0.8-0.6,1.5-1.2,2.1-1.8c0.3-0.3,0.7-0.6,1.1-0.9c2.3-1.6,5.5-1.9,8-0.5l8.4,4.8
			c3.2,1.8,4.5,5.8,3.1,9.1c-0.3,0.7-0.6,1.8-0.6,2.6c0,3.7,2.7,6.6,6,6.8c3.4,0.2,6.1,2.7,6.7,6c0.4,2.5,0.8,5.3,0.8,7.7
			c0,2.4-0.3,5.2-0.8,7.7c-0.6,3.3-3.3,5.8-6.7,6c-3.4,0.2-6.1,3.1-6.1,6.8c0,0.8,0.3,1.9,0.6,2.6c1.4,3.4,0.1,7.3-3.1,9.1l-8.5,4.9
			C100.9,127.7,99.7,128,98.4,128L98.4,128z M98.4,128"/>
	</g>
	<path class="st0" d="M118.2,41.9V13.1c0-6.8-6.3-13.1-13-13.1H14.5c-6.8,0-13,6.3-13,13.1v90.7c0,6.8,6.3,13.1,13,13.1h28.8
		c1.7,0,3.3-0.9,4.2-2.4c0.9-1.5,0.9-3.3,0-4.8c-0.9-1.5-2.4-2.4-4.2-2.4H14.5c-1.5,0-3.4-2-3.4-3.4V13.1c0-1.5,2-3.4,3.4-3.4h90.6
		c1.5,0,3.4,2,3.4,3.4v28.9c0,2.7,2.2,4.8,4.8,4.8C116,46.7,118.2,44.6,118.2,41.9L118.2,41.9z M118.2,41.9"/>
	<path class="st0" d="M27,39.2h65.1c2.7,0,4.8-2.2,4.8-4.8c0-2.7-2.2-4.8-4.8-4.8H27c-2.7,0-4.8,2.2-4.8,4.8
		C22.2,37.1,24.4,39.2,27,39.2L27,39.2z M27,68.8h16.3c2.7,0,4.8-2.2,4.8-4.8c0-2.7-2.2-4.8-4.8-4.8H27c-2.7,0-4.8,2.2-4.8,4.8
		C22.2,66.7,24.4,68.8,27,68.8L27,68.8z M27,68.8"/>
</g>
</svg>
