<?xml version="1.0" encoding="utf-8"?>
<!-- Generator: Adobe Illustrator 21.0.0, SVG Export Plug-In . SVG Version: 6.00 Build 0)  -->
<svg version="1.1" id="图层_1" xmlns="http://www.w3.org/2000/svg" xmlns:xlink="http://www.w3.org/1999/xlink" x="0px" y="0px"
	 viewBox="0 0 30 30" style="enable-background:new 0 0 30 30;" xml:space="preserve">
<style type="text/css">
	.st0{fill:#00B240;}
</style>
<g>
	<path class="st0" d="M24.4,1.9c2.1,0,3.8,1.7,3.8,3.8v20.6c0,2.1-1.7,3.7-3.8,3.7H5.6c-2.1,0-3.7-1.7-3.7-3.7V5.6
		c0-2.1,1.7-3.8,3.7-3.8v2.4C5,4.3,4.4,4.8,4.3,5.4l0,0.2v20.6c0,0.7,0.5,1.2,1.1,1.3l0.2,0h18.8c0.7,0,1.2-0.5,1.3-1.1l0-0.2V5.6
		c0-0.7-0.5-1.2-1.1-1.3l-0.2,0V1.9z M18.8,4.3h-7.5V1.9h7.5V4.3z M18.8,4.3"/>
	<path class="st0" d="M8.7,0c0.8,0,1.2,0.4,1.2,1.2v3.2c0,0.8-0.4,1.2-1.2,1.2c-0.8,0-1.2-0.4-1.2-1.2V1.2C7.5,0.4,7.9,0,8.7,0
		L8.7,0z M8.7,0"/>
	<path class="st0" d="M21.8,0c0.8,0,1.2,0.4,1.2,1.2v3.2c0,0.8-0.4,1.2-1.2,1.2c-0.8,0-1.2-0.4-1.2-1.2V1.2C20.6,0.4,21,0,21.8,0
		L21.8,0z M21.8,0"/>
	<path class="st0" d="M8.7,9.4h6.9c0.8,0,1.2,0.4,1.2,1.2c0,0.8-0.4,1.2-1.2,1.2H8.7c-0.8,0-1.2-0.4-1.2-1.2
		C7.5,9.8,7.9,9.4,8.7,9.4L8.7,9.4z M8.7,9.4"/>
	<path class="st0" d="M8.7,15h12.6c0.8,0,1.2,0.4,1.2,1.2c0,0.8-0.4,1.2-1.2,1.2H8.7c-0.8,0-1.2-0.4-1.2-1.2C7.5,15.4,7.9,15,8.7,15
		L8.7,15z M8.7,15"/>
	<path class="st0" d="M8.7,20.6h5.1c0.8,0,1.2,0.4,1.2,1.2c0,0.8-0.4,1.2-1.2,1.2H8.7c-0.8,0-1.2-0.4-1.2-1.2
		C7.5,21,7.9,20.6,8.7,20.6L8.7,20.6z M8.7,20.6"/>
</g>
</svg>
