<?xml version="1.0" encoding="utf-8"?>
<!-- Generator: Adobe Illustrator 21.0.0, SVG Export Plug-In . SVG Version: 6.00 Build 0)  -->
<svg version="1.1" id="图层_1" xmlns="http://www.w3.org/2000/svg" xmlns:xlink="http://www.w3.org/1999/xlink" x="0px" y="0px"
	 viewBox="0 0 30 30" style="enable-background:new 0 0 30 30;" xml:space="preserve">
<style type="text/css">
	.st0{fill:#FF6417;}
</style>
<g>
	<g>
		<path class="st0" d="M9.6,18.8h1c0,2.4,1.9,4.3,4.3,4.3c2.4,0,4.3-1.9,4.3-4.3h7.5v-16H9.6V18.8z M9,20.9H2.1v6.4h25.7v-6.4H21
			c-0.9,2.6-3.4,4.3-6,4.3C12.3,25.3,9.9,23.5,9,20.9L9,20.9z M7.5,7H3.2v11.8h4.3V7z M7.5,4.8V0.5H29v18.2h1v10.7H0V18.8h1.1V4.8
			H7.5z M12.9,5.9h10.7v2.1H12.9V5.9z M12.9,12.3h10.7v2.1H12.9V12.3z"/>
	</g>
</g>
</svg>
