<?xml version="1.0" encoding="utf-8"?>
<!-- Generator: Adobe Illustrator 21.0.0, SVG Export Plug-In . SVG Version: 6.00 Build 0)  -->
<svg version="1.1" id="图层_1" xmlns="http://www.w3.org/2000/svg" xmlns:xlink="http://www.w3.org/1999/xlink" x="0px" y="0px"
	 viewBox="0 0 30 30" style="enable-background:new 0 0 30 30;" xml:space="preserve">
<style type="text/css">
	.st0{fill:#FF9D5A;}
</style>
<g>
	<g>
		<path class="st0" d="M7.5,0c2.3,0,4.3,1.7,4.7,4c0.4,2.3-1,4.6-3.2,5.3c0.6,2.5,2.9,4.5,5.9,4.7l0.4,0c4,0,7.4,2.8,8,6.6
			c2.3,0.4,4,2.5,3.9,4.9c-0.1,2.4-1.9,4.3-4.2,4.6c-2.4,0.3-4.5-1.2-5.1-3.5c-0.6-2.3,0.6-4.7,2.7-5.6c-0.5-2.6-2.9-4.7-5.9-4.8
			l-0.5,0c-2,0-3.9-0.7-5.4-2l0,6.6c2.3,0.7,3.7,2.9,3.3,5.3C11.9,28.3,9.9,30,7.5,30c-2.4,0-4.4-1.7-4.7-4.1
			c-0.3-2.3,1.1-4.6,3.4-5.3V9.3L6,9.3C3.8,8.5,2.4,6.3,2.8,4C3.2,1.7,5.2,0,7.5,0L7.5,0z M7.5,23.2c-1.1,0-2,0.9-2,2
			c0,1.1,0.9,2,2,2c1.1,0,2-0.9,2-2C9.5,24.1,8.6,23.2,7.5,23.2L7.5,23.2z M22.5,23.2c-1.1,0-2,0.9-2,2c0,1.1,0.9,2,2,2
			c1.1,0,2-0.9,2-2C24.5,24.1,23.6,23.2,22.5,23.2L22.5,23.2z M7.5,2.7c-1.1,0-2,0.9-2,2c0,1.1,0.9,2,2,2c1.1,0,2-0.9,2-2
			C9.5,3.6,8.6,2.7,7.5,2.7L7.5,2.7z M7.5,2.7"/>
	</g>
</g>
</svg>
