<?xml version="1.0" encoding="utf-8"?>
<!-- Generator: Adobe Illustrator 21.0.0, SVG Export Plug-In . SVG Version: 6.00 Build 0)  -->
<svg version="1.1" id="图层_1" xmlns="http://www.w3.org/2000/svg" xmlns:xlink="http://www.w3.org/1999/xlink" x="0px" y="0px"
	 viewBox="0 0 30 30" style="enable-background:new 0 0 30 30;" xml:space="preserve">
<style type="text/css">
	.st0{fill:#B14DFF;}
</style>
<path class="st0" d="M27.5,10c0.7,0,1.3-0.3,1.8-0.7C29.7,8.8,30,8.2,30,7.5v-5C30,1.1,28.9,0,27.5,0h-25C1.1,0,0,1.1,0,2.5v5
	C0,8.9,1.1,10,2.5,10H5v8.8c0,2.1,1.7,3.8,3.7,3.8h3.7v5c0,0.7,0.3,1.3,0.7,1.8c0.5,0.5,1.1,0.7,1.8,0.7h12.5c0.7,0,1.3-0.3,1.8-0.7
	c0.5-0.5,0.7-1.1,0.7-1.8V15c0-0.7-0.3-1.3-0.7-1.8c-0.5-0.5-1.1-0.7-1.8-0.7H15c-1.4,0-2.5,1.1-2.5,2.5v5H8.8
	c-0.7,0-1.2-0.6-1.2-1.2V10H27.5z M15,15h12.5v12.5H15V15z M2.5,2.5h25v5h-25V2.5z"/>
</svg>
