<?xml version="1.0" encoding="utf-8"?>
<!-- Generator: Adobe Illustrator 21.0.0, SVG Export Plug-In . SVG Version: 6.00 Build 0)  -->
<svg version="1.1" id="图层_1" xmlns="http://www.w3.org/2000/svg" xmlns:xlink="http://www.w3.org/1999/xlink" x="0px" y="0px"
	 viewBox="0 0 30 30" style="enable-background:new 0 0 30 30;" xml:space="preserve">
<style type="text/css">
	.st0{fill:#FF3333;}
</style>
<g>
	<g>
		<path class="st0" d="M6.9,14c0.3,0,0.5,0.1,0.7,0.2l0.1,0.1l7.3,8.7l9.6,0l0-1c0-0.2,0.1-0.4,0.2-0.6l0.1-0.1l0.1-0.1
			c0.2-0.1,0.5-0.1,0.7-0.1l0.2,0.1l3.6,2c0.3,0.2,0.4,0.5,0.4,0.8c0,0.3-0.1,0.5-0.3,0.6l-0.1,0.1l-3.6,2c-0.3,0.2-0.6,0.2-0.9,0
			c-0.2-0.1-0.4-0.3-0.4-0.6l0-0.1v-1H14.5c-0.2,0-0.4,0-0.5-0.1l-0.1-0.1l-0.1-0.1L6.4,16H1c-0.2,0-0.5-0.1-0.7-0.2l-0.1-0.1
			l-0.1-0.1c-0.2-0.3-0.2-0.7,0-1c0.2-0.3,0.4-0.4,0.7-0.5L1,14L6.9,14L6.9,14L6.9,14z M25.7,12.1L25.7,12.1l0.2,0.1l3.5,2
			c0.3,0.1,0.6,0.4,0.6,0.8c0,0.2-0.1,0.4-0.2,0.6l-0.1,0.1l-0.1,0.1l-3.6,2c-0.3,0.2-0.6,0.2-0.9,0c-0.2-0.1-0.3-0.2-0.4-0.4
			l-0.1-0.2l0-0.2v-1H14.5c-0.4,0-0.8-0.3-1-0.7l0-0.2l0-0.2c0-0.5,0.4-0.9,0.9-1l0.2,0h10.1l0-1c0-0.1,0-0.3,0.1-0.4l0.1-0.1
			l0.1-0.1l0.1-0.1c0.2-0.1,0.3-0.1,0.5-0.1L25.7,12.1L25.7,12.1z M25.6,3l0.2,0l0.1,0L26,3.1l3.5,2C29.8,5.3,30,5.5,30,5.9
			c0,0.2,0,0.4-0.2,0.5l-0.1,0.1l-0.1,0.1l-3.6,2c-0.3,0.2-0.6,0.2-0.9,0c-0.2-0.1-0.3-0.2-0.4-0.4l-0.1-0.2l0-0.2v-1H15L9.6,13
			c-0.1,0.1-0.3,0.2-0.4,0.3l-0.2,0l-0.2,0c-0.2,0-0.5-0.1-0.7-0.2c-0.2-0.2-0.3-0.4-0.4-0.7c0-0.2,0-0.4,0.2-0.6L8,11.6l5.7-6.4
			c0.2-0.2,0.4-0.3,0.6-0.4l0.2,0h10.1l0-1c0-0.1,0-0.3,0.1-0.4l0.1-0.1l0.1-0.1l0.1-0.1C25.2,3,25.4,3,25.6,3L25.6,3z M25.6,3"/>
	</g>
</g>
</svg>
