<?xml version="1.0" encoding="utf-8"?>
<!-- Generator: Adobe Illustrator 21.0.0, SVG Export Plug-In . SVG Version: 6.00 Build 0)  -->
<svg version="1.1" id="图层_1" xmlns="http://www.w3.org/2000/svg" xmlns:xlink="http://www.w3.org/1999/xlink" x="0px" y="0px"
	 viewBox="0 0 30 30" style="enable-background:new 0 0 30 30;" xml:space="preserve">
<style type="text/css">
	.st0{fill:#FF3333;}
</style>
<g>
	<path class="st0" d="M22.6,4.4H5.8l2.6-2.6c0.4-0.4,0.4-1.1,0-1.5C8-0.1,7.3-0.1,6.9,0.3L2.5,4.7C2.4,4.8,2.3,4.9,2.3,5.1
		c0,0,0,0,0,0c0,0.1-0.1,0.2-0.1,0.3c0,0,0,0,0,0c0,0.3,0.1,0.5,0.3,0.7l4.4,4.4c0.2,0.2,0.5,0.3,0.7,0.3c0.3,0,0.5-0.1,0.7-0.3
		c0.4-0.4,0.4-1.1,0-1.5L5.8,6.5h16.8c1.7,0,3.1,1.4,3.1,3.1v4.6c0,0.4,0.2,0.7,0.5,0.9c0.3,0.2,0.7,0.2,1,0
		c0.3-0.2,0.5-0.5,0.5-0.9V9.6C27.8,6.7,25.5,4.4,22.6,4.4z"/>
	<path class="st0" d="M27.8,24.6C27.8,24.6,27.8,24.6,27.8,24.6c0-0.1,0-0.1,0-0.2c0-0.1,0-0.2-0.1-0.3c0-0.1-0.1-0.1-0.1-0.1
		c0-0.1-0.1-0.1-0.1-0.2l-4.4-4.4c-0.4-0.4-1.1-0.4-1.5,0c-0.4,0.4-0.4,1.1,0,1.5l2.6,2.6H7.4c-1.7,0-3.1-1.4-3.1-3.1v-4.6
		c0-0.6-0.5-1-1-1c-0.6,0-1,0.5-1,1v4.6c0,2.9,2.3,5.2,5.2,5.2h16.8l-2.6,2.6c-0.4,0.4-0.4,1.1,0,1.5c0.2,0.2,0.5,0.3,0.7,0.3
		c0.3,0,0.5-0.1,0.7-0.3l4.4-4.4c0.1-0.1,0.1-0.1,0.1-0.2c0,0,0.1-0.1,0.1-0.1C27.8,24.8,27.8,24.7,27.8,24.6z"/>
</g>
</svg>
