<?xml version="1.0" encoding="utf-8"?>
<!-- Generator: Adobe Illustrator 21.0.0, SVG Export Plug-In . SVG Version: 6.00 Build 0)  -->
<svg version="1.1" id="图层_1" xmlns="http://www.w3.org/2000/svg" xmlns:xlink="http://www.w3.org/1999/xlink" x="0px" y="0px"
	 viewBox="0 0 30 30" style="enable-background:new 0 0 30 30;" xml:space="preserve">
<style type="text/css">
	.st0{fill:#00B240;}
</style>
<g>
	<path class="st0" d="M7.3,11.8h13.3c0.9,0,1.3-0.4,1.3-1.3c0-0.8-0.4-1.3-1.3-1.3H7.3C6.4,9.3,6,9.7,6,10.6C6,11,6.4,11.8,7.3,11.8
		z"/>
	<path class="st0" d="M16.3,16.1c0-0.8-0.4-1.3-1.3-1.3H7.3c-0.9,0-1.3,0.4-1.3,1.3c0,0.8,0.4,1.3,1.3,1.3H15
		C15.8,16.9,16.3,16.9,16.3,16.1z"/>
	<path class="st0" d="M7.3,20.3c-0.9,0-1.3,0.4-1.3,1.3c0,0.8,0.4,1.3,1.3,1.3h5.1c0.9,0,1.3-0.4,1.3-1.3c0-0.8-0.4-1.3-1.3-1.3H7.3
		z"/>
	<path class="st0" d="M24.8,5.5v6.8h2.6V5.1c0-2.1-1.7-3.8-3.9-3.8v2.5l0,0C24.4,4.2,24.8,4.2,24.8,5.5z"/>
	<rect x="10.3" y="1.3" class="st0" width="7.7" height="2.5"/>
	<path class="st0" d="M3.9,27.6c-0.4,0-1.3-0.6-1.3-1.4V5.5l0,0c0-0.4,0.4-1.3,1.3-1.3V1.7C1.7,1.7,0,3.4,0,5.5v20.7
		C0,28.3,1.7,30,3.9,30H18v-2.4H3.9L3.9,27.6z"/>
	<path class="st0" d="M7.1,5L7.1,5C6.4,5,5.8,4.4,5.8,3.7V1.3C5.8,0.6,6.4,0,7.1,0h0c0.7,0,1.3,0.6,1.3,1.3v2.4C8.4,4.4,7.8,5,7.1,5
		z"/>
	<path class="st0" d="M20.7,5L20.7,5c-0.7,0-1.3-0.6-1.3-1.3V1.3C19.4,0.6,20,0,20.7,0h0C21.4,0,22,0.6,22,1.3v2.4
		C22,4.4,21.4,5,20.7,5z"/>
	<g>
		<path class="st0" d="M23.7,30l-0.7-0.7c-0.6-0.6-5.6-6.3-5.6-9.5c0-3.4,2.8-6.3,6.3-6.3s6.3,2.8,6.3,6.3c0,3.2-5,8.9-5.6,9.5
			L23.7,30z M23.7,15.3c-2.5,0-4.5,2-4.5,4.5c0,1.7,2.5,5.3,4.5,7.6c2-2.3,4.5-5.9,4.5-7.6C28.2,17.3,26.2,15.3,23.7,15.3z"/>
	</g>
	<g>
		<path class="st0" d="M23.7,23c-1.6,0-3-1.3-3-3s1.3-3,3-3s3,1.3,3,3S25.4,23,23.7,23z M23.7,18.8c-0.7,0-1.2,0.5-1.2,1.2
			s0.5,1.2,1.2,1.2c0.7,0,1.2-0.5,1.2-1.2S24.4,18.8,23.7,18.8z"/>
	</g>
</g>
</svg>
