<?xml version="1.0" encoding="utf-8"?>
<!-- Generator: Adobe Illustrator 21.0.0, SVG Export Plug-In . SVG Version: 6.00 Build 0)  -->
<svg version="1.1" id="图层_1" xmlns="http://www.w3.org/2000/svg" xmlns:xlink="http://www.w3.org/1999/xlink" x="0px" y="0px"
	 viewBox="0 0 30 30" style="enable-background:new 0 0 30 30;" xml:space="preserve">
<style type="text/css">
	.st0{fill:#FF3333;}
</style>
<g>
	<path class="st0" d="M24.4,3.1L24.4,3.1c-0.3-0.3-0.6-0.4-1-0.4c-0.8,0-1.5,0.7-1.5,1.5c0,0.4,0.1,0.8,0.4,1c3,2.3,4.8,5.8,4.8,9.6
		C27,21.5,21.6,27,15,27C8.4,27,3,21.5,3,14.8c0-3.9,1.9-7.4,4.8-9.6C8,5,8.2,4.6,8.2,4.2c0-0.8-0.7-1.5-1.5-1.5
		C6,2.7,5.6,3.1,5.6,3.1C2.2,5.9,0,10.1,0,14.8C0,23.2,6.7,30,15,30c8.3,0,15-6.8,15-15.2C30,10.1,27.8,5.9,24.4,3.1L24.4,3.1z
		 M15,16.5c0.4,0,0.8-0.2,1.1-0.4c0.3-0.3,0.4-0.7,0.4-1.1V1.5c0-0.4-0.2-0.8-0.4-1.1C15.8,0.2,15.4,0,15,0c-0.4,0-0.8,0.2-1.1,0.4
		c-0.3,0.3-0.4,0.7-0.4,1.1V15c0,0.4,0.2,0.8,0.4,1.1C14.2,16.4,14.6,16.5,15,16.5L15,16.5z M15,16.5"/>
</g>
</svg>
