<?xml version="1.0" encoding="utf-8"?>
<!-- Generator: Adobe Illustrator 21.0.0, SVG Export Plug-In . SVG Version: 6.00 Build 0)  -->
<svg version="1.1" id="图层_1" xmlns="http://www.w3.org/2000/svg" xmlns:xlink="http://www.w3.org/1999/xlink" x="0px" y="0px"
	 viewBox="0 0 30 30" style="enable-background:new 0 0 30 30;" xml:space="preserve">
<style type="text/css">
	.st0{fill:#11AA4F;}
</style>
<g>
	<g>
		<path class="st0" d="M15,0C6.7,0,0,6.7,0,15c0,8.3,6.7,15,15,15c8.3,0,15-6.7,15-15C30,6.7,23.3,0,15,0L15,0z M15,28
			C7.8,28,2,22.2,2,15C2,7.8,7.8,2,15,2c7.2,0,13,5.8,13,13C28,22.2,22.2,28,15,28L15,28z M15,28"/>
	</g>
	<path class="st0" d="M22,14.1L11.8,8.2c-0.3-0.2-0.7-0.2-1,0c-0.3,0.2-0.5,0.5-0.5,0.9v11.8c0,0.4,0.2,0.7,0.5,0.9
		c0.2,0.1,0.3,0.1,0.5,0.1c0.2,0,0.4,0,0.5-0.1L22,15.9c0.3-0.2,0.5-0.5,0.5-0.9C22.5,14.6,22.3,14.3,22,14.1L22,14.1z M12.3,19.1
		v-8.3l7.2,4.1L12.3,19.1z M12.3,19.1"/>
</g>
</svg>
