<?xml version="1.0" encoding="utf-8"?>
<!-- Generator: Adobe Illustrator 21.0.0, SVG Export Plug-In . SVG Version: 6.00 Build 0)  -->
<svg version="1.1" id="图层_1" xmlns="http://www.w3.org/2000/svg" xmlns:xlink="http://www.w3.org/1999/xlink" x="0px" y="0px"
	 viewBox="0 0 30 30" style="enable-background:new 0 0 30 30;" xml:space="preserve">
<style type="text/css">
	.st0{fill:#16A1D8;}
</style>
<g>
	<path class="st0" d="M27.5,13.8c1.4,0,2.5-1.1,2.5-2.5V2.5C30,1.2,28.9,0,27.5,0h-8.9c-1.4,0-2.5,1.1-2.5,2.5v8.7
		c0,1.4,1.1,2.5,2.5,2.5H27.5z M27.5,2.5v8.7h-8.9V2.5H27.5z"/>
	<path class="st0" d="M11.4,16.2h-9c-1.4,0-2.5,1.1-2.5,2.5v8.7C0,28.8,1.1,30,2.5,30h9c1.4,0,2.5-1.1,2.5-2.5v-8.7
		C13.9,17.4,12.8,16.2,11.4,16.2z M11.4,27.5h-9v-8.7h9V27.5z"/>
	<polygon class="st0" points="30,22.4 24.9,22.4 24.9,17.3 22.4,17.3 22.4,22.4 17.3,22.4 17.3,24.8 22.4,24.8 22.4,30 24.9,30 
		24.9,24.8 30,24.8 	"/>
	<path class="st0" d="M11.4,0.1h-9C1.1,0.1,0,1.2,0,2.6v8.7c0,1.4,1.1,2.5,2.5,2.5h9c1.4,0,2.5-1.1,2.5-2.5V2.6
		C13.9,1.2,12.8,0.1,11.4,0.1z M11.4,11.3h-9V2.6h9V11.3z"/>
</g>
</svg>
